<svg version="1.1"
	 xmlns="http://www.w3.org/2000/svg" xmlns:xlink="http://www.w3.org/1999/xlink" xmlns:a="http://ns.adobe.com/AdobeSVGViewerExtensions/3.0/"
	 x="0px" y="0px" width="481.6px" height="489.8px" viewBox="0 0 481.6 489.8" style="enable-background:new 0 0 481.6 489.8;"
	 xml:space="preserve">
<style type="text/css">
	.st0{fill:#020202;}
	.st1{fill:#601414;}
	.st2{fill:#E02020;}
</style>
<defs>
</defs>
<g>
	<path class="st0" d="M34.5,489.8c-8.3,0-16.6-2.3-23.1-6.8c-12.4-8.6-15-22.8-6.1-33.7l116.7-143.5l-22,4.9
		c-6.5,1.5-13.3,2.2-20.1,2.2c-9.7,0-19.1-1.5-28.1-4.4c-16.9-5.5-30.1-17.7-31.8-31.9c-0.7-6-0.1-12-0.5-17.9
		c-0.4-7.6-2.4-15-3-22.6c-0.6-6.8,2.8-14.1,1-20.6c-1.3-4.7-6.8-9-8.5-14c-1.7-4.9-2.1-10.1-1-15.1c1.8-8.1,7.1-15.4,14.9-20.9
		c10.9-7.5,18.5-13.5,23.1-17.5c-0.7-4.6-0.5-8.1-0.4-10c0.2-2.4,0.8-4.8,1.8-7l5.7-12.9C84,40.9,154.4,25.4,186.8,22.5
		c5.5-2.7,12.2-4.5,18.6-4.6c0,0,21.1-0.3,21.3-0.3c7,0,13.9,1.7,19.7,4.8c0.6,0.3,1.2,0.6,1.7,1L414.5,0.4c2-0.3,4.1-0.4,6.1-0.4
		c11.8,0,22.9,4.6,29.3,12.5c7.4,9.2,6.8,21-1.6,29.7L336.7,157.9l102.8-18.1c2.6-0.4,5.1-0.7,7.7-0.7c12.6,0,24.5,5.4,30.6,14.3
		c7.2,10.7,4.2,23.8-7.5,31.9l-128.7,89.4c2.9,2.1,5.4,4.6,7.3,7.4c7.4,11.3,3.4,25.1-9.6,32.8L55.6,484.2
		C49.4,487.9,41.9,489.8,34.5,489.8z"/>
	<path class="st1" d="M434.6,174.4L237,311.5l21.1-4.6l59.9-13l-17.8,10.6l-244,145.7l-21.8,13l157.8-194l6.8-8.4l-70.4,15.8
		l-38.3,8.6c-8.3,1.9-17.1,1.5-24.9-1.1c-0.8-0.3-1.7-0.6-2.5-1h-0.1c-2.3-1.1-4.3-2.5-5.9-4.2c-2.5-2.7-4.1-6.1-3.4-9.1
		c0-0.1,3.7-16.2,4.2-18.1c0-0.2-0.1-0.3-0.1-0.4c-3.7-3.8-6.4-9.8-6.8-10.5c0,0,0-0.1,0-0.1v-4.1c0.1-0.2,0.2-0.3,0.3-0.5l6.6-3.5
		h0.1l0.6-0.3c0.8-0.8,2.3-2.4,1.2-2.7l-2-0.5l-6.8-1.7l-0.2-1.3c-0.2-1.2,0-2.4,0.7-3.5l7.5-13.2l0.3-0.6l-2.9-2.2
		c-1.8-0.9-3.4-1.8-4.8-2.7c-2.4-1.5-4.3-2.9-5.9-4.2c-2.7-2.5-4.3-5.6-3.7-8.8c0.6-2.2,1.9-4.2,4.1-5.7
		c8.9-6.1,38.6-27.3,36.2-32.9c-2.7-6.4-2.3-11.9-2.2-12.4v-0.2l5.9-13.3c31.7-80.1,110.6-78.3,117.4-78c0.3,0.1,0.6-0.1,0.7-0.3
		l1.4-3.3c0.2-0.2,0.4-0.3,0.6-0.4l20.5-0.3c0.3,0.1,0.4,0.2,0.6,0.3l2.4,5l1.4,3.1l4.1-0.6l185.3-25.4l-7,7.2l-160.1,166l14.5-2.5
		l179.2-31.5L434.6,174.4z"/>
	<path class="st2" d="M243.9,316.8l56.3-12.2l-244,145.7L206,266.2l-13.7,3.1l6.8-8.4l-70.4,15.8l-38.3,8.6
		c-8.3,1.9-17.1,1.5-24.9-1.1c-0.8-0.3-1.7-0.6-2.5-1h-0.1c-1.9-2.5-3.1-5.3-2.5-8c0-0.1,3.7-16.2,4.2-18.1c0-0.2-0.1-0.3-0.1-0.4
		c-3.7-3.8-6.4-9.8-6.8-10.5c0,0,0-0.1,0-0.1V242c0.1-0.2,0.2-0.3,0.3-0.5l7.3-3.8c0.8-0.8,2.3-2.4,1.2-2.7l-8.7-2.3h-0.1l-0.2-1.3
		c-0.1-0.8-0.1-1.5,0.1-2.3c0.1-0.4,0.3-0.8,0.6-1.3l7.9-13.9l-2.9-2.2c-1.6-0.8-3-1.6-4.3-2.4c-2.6-1.6-4.7-3.1-6.3-4.5
		c-0.3-0.4-0.8-0.7-1-1.1c-2.1-2.3-3.2-5-2.6-7.7c0.6-2.2,1.9-4.2,4.1-5.7c8.9-6.1,38.6-27.3,36.2-32.9c-2.7-6.4-2.3-11.9-2.2-12.4
		v-0.2l5.9-13.3c31.7-80.1,110.6-78.3,117.4-78c0.3,0.1,0.6-0.1,0.7-0.3l1.4-3.3c0.2-0.2,0.4-0.3,0.6-0.4l16.7-0.3l3.9-0.1
		c0.3,0.1,0.4,0.2,0.6,0.3l1.1,2.3l2.8,5.9l175.6-24.1l-160.1,166l14.5-2.5l-7.6,7.8l174.3-30.6L237,311.5l21.1-4.6L243.9,316.8z"/>
</g>
</svg>